<svg id="visual" viewBox="0 0 960 540" width="960" height="540" xmlns="http://www.w3.org/2000/svg" xmlns:xlink="http://www.w3.org/1999/xlink" version="1.1"><rect x="0" y="0" width="960" height="540" fill="#F5F6FA"></rect><defs><linearGradient id="grad1_0" x1="43.8%" y1="100%" x2="100%" y2="0%"><stop offset="14.444444444444446%" stop-color="#715df2" stop-opacity="1"></stop><stop offset="85.55555555555554%" stop-color="#715df2" stop-opacity="1"></stop></linearGradient></defs><defs><linearGradient id="grad1_1" x1="43.8%" y1="100%" x2="100%" y2="0%"><stop offset="14.444444444444446%" stop-color="#715df2" stop-opacity="1"></stop><stop offset="85.55555555555554%" stop-color="#7d75f8" stop-opacity="1"></stop></linearGradient></defs><defs><linearGradient id="grad1_2" x1="43.8%" y1="100%" x2="100%" y2="0%"><stop offset="14.444444444444446%" stop-color="#8c8cfb" stop-opacity="1"></stop><stop offset="85.55555555555554%" stop-color="#7d75f8" stop-opacity="1"></stop></linearGradient></defs><defs><linearGradient id="grad1_3" x1="43.8%" y1="100%" x2="100%" y2="0%"><stop offset="14.444444444444446%" stop-color="#8c8cfb" stop-opacity="1"></stop><stop offset="85.55555555555554%" stop-color="#9da2fe" stop-opacity="1"></stop></linearGradient></defs><defs><linearGradient id="grad1_4" x1="43.8%" y1="100%" x2="100%" y2="0%"><stop offset="14.444444444444446%" stop-color="#b0b8ff" stop-opacity="1"></stop><stop offset="85.55555555555554%" stop-color="#9da2fe" stop-opacity="1"></stop></linearGradient></defs><defs><linearGradient id="grad1_5" x1="43.8%" y1="100%" x2="100%" y2="0%"><stop offset="14.444444444444446%" stop-color="#b0b8ff" stop-opacity="1"></stop><stop offset="85.55555555555554%" stop-color="#c5cdfe" stop-opacity="1"></stop></linearGradient></defs><defs><linearGradient id="grad1_6" x1="43.8%" y1="100%" x2="100%" y2="0%"><stop offset="14.444444444444446%" stop-color="#dce2fd" stop-opacity="1"></stop><stop offset="85.55555555555554%" stop-color="#c5cdfe" stop-opacity="1"></stop></linearGradient></defs><defs><linearGradient id="grad1_7" x1="43.8%" y1="100%" x2="100%" y2="0%"><stop offset="14.444444444444446%" stop-color="#dce2fd" stop-opacity="1"></stop><stop offset="85.55555555555554%" stop-color="#f5f6fa" stop-opacity="1"></stop></linearGradient></defs><defs><linearGradient id="grad2_0" x1="0%" y1="100%" x2="56.3%" y2="0%"><stop offset="14.444444444444446%" stop-color="#715df2" stop-opacity="1"></stop><stop offset="85.55555555555554%" stop-color="#715df2" stop-opacity="1"></stop></linearGradient></defs><defs><linearGradient id="grad2_1" x1="0%" y1="100%" x2="56.3%" y2="0%"><stop offset="14.444444444444446%" stop-color="#7d75f8" stop-opacity="1"></stop><stop offset="85.55555555555554%" stop-color="#715df2" stop-opacity="1"></stop></linearGradient></defs><defs><linearGradient id="grad2_2" x1="0%" y1="100%" x2="56.3%" y2="0%"><stop offset="14.444444444444446%" stop-color="#7d75f8" stop-opacity="1"></stop><stop offset="85.55555555555554%" stop-color="#8c8cfb" stop-opacity="1"></stop></linearGradient></defs><defs><linearGradient id="grad2_3" x1="0%" y1="100%" x2="56.3%" y2="0%"><stop offset="14.444444444444446%" stop-color="#9da2fe" stop-opacity="1"></stop><stop offset="85.55555555555554%" stop-color="#8c8cfb" stop-opacity="1"></stop></linearGradient></defs><defs><linearGradient id="grad2_4" x1="0%" y1="100%" x2="56.3%" y2="0%"><stop offset="14.444444444444446%" stop-color="#9da2fe" stop-opacity="1"></stop><stop offset="85.55555555555554%" stop-color="#b0b8ff" stop-opacity="1"></stop></linearGradient></defs><defs><linearGradient id="grad2_5" x1="0%" y1="100%" x2="56.3%" y2="0%"><stop offset="14.444444444444446%" stop-color="#c5cdfe" stop-opacity="1"></stop><stop offset="85.55555555555554%" stop-color="#b0b8ff" stop-opacity="1"></stop></linearGradient></defs><defs><linearGradient id="grad2_6" x1="0%" y1="100%" x2="56.3%" y2="0%"><stop offset="14.444444444444446%" stop-color="#c5cdfe" stop-opacity="1"></stop><stop offset="85.55555555555554%" stop-color="#dce2fd" stop-opacity="1"></stop></linearGradient></defs><defs><linearGradient id="grad2_7" x1="0%" y1="100%" x2="56.3%" y2="0%"><stop offset="14.444444444444446%" stop-color="#f5f6fa" stop-opacity="1"></stop><stop offset="85.55555555555554%" stop-color="#dce2fd" stop-opacity="1"></stop></linearGradient></defs><g transform="translate(960, 540)"><path d="M-459 0C-462.9 -69.1 -466.8 -138.1 -424.1 -175.7C-381.3 -213.2 -292 -219.1 -239.7 -239.7C-187.5 -260.3 -172.3 -295.5 -138.5 -334.4C-104.8 -373.4 -52.4 -416.2 0 -459L0 0Z" fill="#e8ecfb"></path><path d="M-401.6 0C-405 -60.4 -408.4 -120.9 -371.1 -153.7C-333.7 -186.5 -255.5 -191.7 -209.7 -209.7C-164 -227.7 -150.8 -258.5 -121.2 -292.6C-91.7 -326.7 -45.8 -364.2 0 -401.6L0 0Z" fill="#d0d7fe"></path><path d="M-344.2 0C-347.2 -51.8 -350.1 -103.6 -318 -131.7C-286 -159.9 -219 -164.4 -179.8 -179.8C-140.6 -195.2 -129.2 -221.6 -103.9 -250.8C-78.6 -280.1 -39.3 -312.2 0 -344.2L0 0Z" fill="#bbc2ff"></path><path d="M-286.9 0C-289.3 -43.2 -291.7 -86.3 -265 -109.8C-238.3 -133.2 -182.5 -137 -149.8 -149.8C-117.2 -162.7 -107.7 -184.7 -86.6 -209C-65.5 -233.4 -32.7 -260.1 0 -286.9L0 0Z" fill="#a6adfe"></path><path d="M-229.5 0C-231.4 -34.5 -233.4 -69.1 -212 -87.8C-190.7 -106.6 -146 -109.6 -119.9 -119.9C-93.7 -130.1 -86.1 -147.7 -69.3 -167.2C-52.4 -186.7 -26.2 -208.1 0 -229.5L0 0Z" fill="#9497fd"></path><path d="M-172.1 0C-173.6 -25.9 -175 -51.8 -159 -65.9C-143 -79.9 -109.5 -82.2 -89.9 -89.9C-70.3 -97.6 -64.6 -110.8 -51.9 -125.4C-39.3 -140 -19.6 -156.1 0 -172.1L0 0Z" fill="#8581fa"></path><path d="M-114.7 0C-115.7 -17.3 -116.7 -34.5 -106 -43.9C-95.3 -53.3 -73 -54.8 -59.9 -59.9C-46.9 -65.1 -43.1 -73.9 -34.6 -83.6C-26.2 -93.4 -13.1 -104.1 0 -114.7L0 0Z" fill="#7769f5"></path><path d="M-57.4 0C-57.9 -8.6 -58.3 -17.3 -53 -22C-47.7 -26.6 -36.5 -27.4 -30 -30C-23.4 -32.5 -21.5 -36.9 -17.3 -41.8C-13.1 -46.7 -6.5 -52 0 -57.4L0 0Z" fill="#715df2"></path></g><g transform="translate(0, 0)"><path d="M459 0C447.8 56.7 436.6 113.5 417.6 173C398.6 232.5 371.7 294.8 324.6 324.6C277.5 354.4 210.2 351.6 152.7 368.6C95.2 385.6 47.6 422.3 0 459L0 0Z" fill="#e8ecfb"></path><path d="M401.6 0C391.8 49.6 382.1 99.3 365.4 151.4C348.7 203.4 325.2 257.9 284 284C242.8 310.1 183.9 307.7 133.6 322.5C83.3 337.4 41.7 369.5 0 401.6L0 0Z" fill="#d0d7fe"></path><path d="M344.3 0C335.9 42.5 327.5 85.1 313.2 129.7C298.9 174.4 278.7 221.1 243.4 243.4C208.1 265.8 157.6 263.7 114.5 276.5C71.4 289.2 35.7 316.7 0 344.3L0 0Z" fill="#bbc2ff"></path><path d="M286.9 0C279.9 35.5 272.9 70.9 261 108.1C249.1 145.3 232.3 184.2 202.9 202.9C173.4 221.5 131.3 219.8 95.4 230.4C59.5 241 29.8 263.9 0 286.9L0 0Z" fill="#a6adfe"></path><path d="M229.5 0C223.9 28.4 218.3 56.7 208.8 86.5C199.3 116.2 185.8 147.4 162.3 162.3C138.7 177.2 105.1 175.8 76.3 184.3C47.6 192.8 23.8 211.2 0 229.5L0 0Z" fill="#9497fd"></path><path d="M172.1 0C167.9 21.3 163.7 42.5 156.6 64.9C149.5 87.2 139.4 110.5 121.7 121.7C104 132.9 78.8 131.9 57.3 138.2C35.7 144.6 17.9 158.4 0 172.1L0 0Z" fill="#8581fa"></path><path d="M114.8 0C112 14.2 109.2 28.4 104.4 43.2C99.6 58.1 92.9 73.7 81.1 81.1C69.4 88.6 52.5 87.9 38.2 92.2C23.8 96.4 11.9 105.6 0 114.8L0 0Z" fill="#7769f5"></path><path d="M57.4 0C56 7.1 54.6 14.2 52.2 21.6C49.8 29.1 46.5 36.8 40.6 40.6C34.7 44.3 26.3 44 19.1 46.1C11.9 48.2 6 52.8 0 57.4L0 0Z" fill="#715df2"></path></g></svg>