<svg id="visual" viewBox="0 0 960 540" width="960" height="540" xmlns="http://www.w3.org/2000/svg" xmlns:xlink="http://www.w3.org/1999/xlink" version="1.1"><rect x="0" y="0" width="960" height="540" fill="#F5F6FA"></rect><defs><linearGradient id="grad1_0" x1="43.8%" y1="0%" x2="100%" y2="100%"><stop offset="14.444444444444446%" stop-color="#715df2" stop-opacity="1"></stop><stop offset="85.55555555555554%" stop-color="#715df2" stop-opacity="1"></stop></linearGradient></defs><defs><linearGradient id="grad1_1" x1="43.8%" y1="0%" x2="100%" y2="100%"><stop offset="14.444444444444446%" stop-color="#715df2" stop-opacity="1"></stop><stop offset="85.55555555555554%" stop-color="#8886fb" stop-opacity="1"></stop></linearGradient></defs><defs><linearGradient id="grad1_2" x1="43.8%" y1="0%" x2="100%" y2="100%"><stop offset="14.444444444444446%" stop-color="#a6adfe" stop-opacity="1"></stop><stop offset="85.55555555555554%" stop-color="#8886fb" stop-opacity="1"></stop></linearGradient></defs><defs><linearGradient id="grad1_3" x1="43.8%" y1="0%" x2="100%" y2="100%"><stop offset="14.444444444444446%" stop-color="#a6adfe" stop-opacity="1"></stop><stop offset="85.55555555555554%" stop-color="#cbd2fe" stop-opacity="1"></stop></linearGradient></defs><defs><linearGradient id="grad1_4" x1="43.8%" y1="0%" x2="100%" y2="100%"><stop offset="14.444444444444446%" stop-color="#f5f6fa" stop-opacity="1"></stop><stop offset="85.55555555555554%" stop-color="#cbd2fe" stop-opacity="1"></stop></linearGradient></defs><defs><linearGradient id="grad2_0" x1="0%" y1="0%" x2="56.3%" y2="100%"><stop offset="14.444444444444446%" stop-color="#715df2" stop-opacity="1"></stop><stop offset="85.55555555555554%" stop-color="#715df2" stop-opacity="1"></stop></linearGradient></defs><defs><linearGradient id="grad2_1" x1="0%" y1="0%" x2="56.3%" y2="100%"><stop offset="14.444444444444446%" stop-color="#8886fb" stop-opacity="1"></stop><stop offset="85.55555555555554%" stop-color="#715df2" stop-opacity="1"></stop></linearGradient></defs><defs><linearGradient id="grad2_2" x1="0%" y1="0%" x2="56.3%" y2="100%"><stop offset="14.444444444444446%" stop-color="#8886fb" stop-opacity="1"></stop><stop offset="85.55555555555554%" stop-color="#a6adfe" stop-opacity="1"></stop></linearGradient></defs><defs><linearGradient id="grad2_3" x1="0%" y1="0%" x2="56.3%" y2="100%"><stop offset="14.444444444444446%" stop-color="#cbd2fe" stop-opacity="1"></stop><stop offset="85.55555555555554%" stop-color="#a6adfe" stop-opacity="1"></stop></linearGradient></defs><defs><linearGradient id="grad2_4" x1="0%" y1="0%" x2="56.3%" y2="100%"><stop offset="14.444444444444446%" stop-color="#cbd2fe" stop-opacity="1"></stop><stop offset="85.55555555555554%" stop-color="#f5f6fa" stop-opacity="1"></stop></linearGradient></defs><g transform="translate(960, 0)"><path d="M0 405C-52.1 393 -104.2 381 -148.5 358.5C-192.7 335.9 -229.2 302.7 -268.7 268.7C-308.2 234.7 -350.9 199.9 -374.2 155C-397.4 110.1 -401.2 55 -405 0L0 0Z" fill="#dfe4fc"></path><path d="M0 324C-41.7 314.4 -83.4 304.8 -118.8 286.8C-154.2 268.7 -183.3 242.2 -215 215C-246.6 187.8 -280.7 159.9 -299.3 124C-317.9 88.1 -321 44 -324 0L0 0Z" fill="#b8c0ff"></path><path d="M0 243C-31.3 235.8 -62.5 228.6 -89.1 215.1C-115.6 201.5 -137.5 181.6 -161.2 161.2C-184.9 140.8 -210.6 119.9 -224.5 93C-238.4 66 -240.7 33 -243 0L0 0Z" fill="#979afd"></path><path d="M0 162C-20.8 157.2 -41.7 152.4 -59.4 143.4C-77.1 134.4 -91.7 121.1 -107.5 107.5C-123.3 93.9 -140.4 80 -149.7 62C-159 44 -160.5 22 -162 0L0 0Z" fill="#7c72f7"></path><path d="M0 81C-10.4 78.6 -20.8 76.2 -29.7 71.7C-38.5 67.2 -45.8 60.5 -53.7 53.7C-61.6 46.9 -70.2 40 -74.8 31C-79.5 22 -80.2 11 -81 0L0 0Z" fill="#715df2"></path></g><g transform="translate(0, 540)"><path d="M0 -405C57.8 -404 115.5 -403 155 -374.2C194.4 -345.4 215.6 -288.7 248.9 -248.9C282.2 -209.1 327.7 -186 355.7 -147.3C383.7 -108.6 394.4 -54.3 405 0L0 0Z" fill="#dfe4fc"></path><path d="M0 -324C46.2 -323.2 92.4 -322.4 124 -299.3C155.6 -276.3 172.5 -231 199.1 -199.1C225.8 -167.3 262.1 -148.8 284.6 -117.9C307 -86.9 315.5 -43.5 324 0L0 0Z" fill="#b8c0ff"></path><path d="M0 -243C34.7 -242.4 69.3 -241.8 93 -224.5C116.7 -207.2 129.4 -173.2 149.3 -149.3C169.3 -125.4 196.6 -111.6 213.4 -88.4C230.2 -65.2 236.6 -32.6 243 0L0 0Z" fill="#979afd"></path><path d="M0 -162C23.1 -161.6 46.2 -161.2 62 -149.7C77.8 -138.1 86.2 -115.5 99.6 -99.6C112.9 -83.6 131.1 -74.4 142.3 -58.9C153.5 -43.5 157.7 -21.7 162 0L0 0Z" fill="#7c72f7"></path><path d="M0 -81C11.6 -80.8 23.1 -80.6 31 -74.8C38.9 -69.1 43.1 -57.7 49.8 -49.8C56.4 -41.8 65.5 -37.2 71.1 -29.5C76.7 -21.7 78.9 -10.9 81 0L0 0Z" fill="#715df2"></path></g></svg>