<svg id="visual" viewBox="0 0 960 540" width="960" height="540" xmlns="http://www.w3.org/2000/svg" xmlns:xlink="http://www.w3.org/1999/xlink" version="1.1"><rect x="0" y="0" width="960" height="540" fill="#F5F6FA"></rect><defs><linearGradient id="grad1_0" x1="43.8%" y1="100%" x2="100%" y2="0%"><stop offset="14.444444444444446%" stop-color="#715df2" stop-opacity="1"></stop><stop offset="85.55555555555554%" stop-color="#715df2" stop-opacity="1"></stop></linearGradient></defs><defs><linearGradient id="grad1_1" x1="43.8%" y1="100%" x2="100%" y2="0%"><stop offset="14.444444444444446%" stop-color="#715df2" stop-opacity="1"></stop><stop offset="85.55555555555554%" stop-color="#8886fb" stop-opacity="1"></stop></linearGradient></defs><defs><linearGradient id="grad1_2" x1="43.8%" y1="100%" x2="100%" y2="0%"><stop offset="14.444444444444446%" stop-color="#a6adfe" stop-opacity="1"></stop><stop offset="85.55555555555554%" stop-color="#8886fb" stop-opacity="1"></stop></linearGradient></defs><defs><linearGradient id="grad1_3" x1="43.8%" y1="100%" x2="100%" y2="0%"><stop offset="14.444444444444446%" stop-color="#a6adfe" stop-opacity="1"></stop><stop offset="85.55555555555554%" stop-color="#cbd2fe" stop-opacity="1"></stop></linearGradient></defs><defs><linearGradient id="grad1_4" x1="43.8%" y1="100%" x2="100%" y2="0%"><stop offset="14.444444444444446%" stop-color="#f5f6fa" stop-opacity="1"></stop><stop offset="85.55555555555554%" stop-color="#cbd2fe" stop-opacity="1"></stop></linearGradient></defs><defs><linearGradient id="grad2_0" x1="0%" y1="100%" x2="56.3%" y2="0%"><stop offset="14.444444444444446%" stop-color="#715df2" stop-opacity="1"></stop><stop offset="85.55555555555554%" stop-color="#715df2" stop-opacity="1"></stop></linearGradient></defs><defs><linearGradient id="grad2_1" x1="0%" y1="100%" x2="56.3%" y2="0%"><stop offset="14.444444444444446%" stop-color="#8886fb" stop-opacity="1"></stop><stop offset="85.55555555555554%" stop-color="#715df2" stop-opacity="1"></stop></linearGradient></defs><defs><linearGradient id="grad2_2" x1="0%" y1="100%" x2="56.3%" y2="0%"><stop offset="14.444444444444446%" stop-color="#8886fb" stop-opacity="1"></stop><stop offset="85.55555555555554%" stop-color="#a6adfe" stop-opacity="1"></stop></linearGradient></defs><defs><linearGradient id="grad2_3" x1="0%" y1="100%" x2="56.3%" y2="0%"><stop offset="14.444444444444446%" stop-color="#cbd2fe" stop-opacity="1"></stop><stop offset="85.55555555555554%" stop-color="#a6adfe" stop-opacity="1"></stop></linearGradient></defs><defs><linearGradient id="grad2_4" x1="0%" y1="100%" x2="56.3%" y2="0%"><stop offset="14.444444444444446%" stop-color="#cbd2fe" stop-opacity="1"></stop><stop offset="85.55555555555554%" stop-color="#f5f6fa" stop-opacity="1"></stop></linearGradient></defs><g transform="translate(960, 540)"><path d="M-405 0C-371.3 -40.9 -337.7 -81.9 -323.4 -133.9C-309 -186 -314.1 -249.2 -286.4 -286.4C-258.7 -323.6 -198.2 -334.7 -145 -350.2C-91.9 -365.6 -45.9 -385.3 0 -405L0 0Z" fill="#dfe4fc"></path><path d="M-324 0C-297.1 -32.7 -270.1 -65.5 -258.7 -107.2C-247.2 -148.8 -251.3 -199.4 -229.1 -229.1C-206.9 -258.8 -158.6 -267.8 -116 -280.1C-73.5 -292.5 -36.7 -308.2 0 -324L0 0Z" fill="#b8c0ff"></path><path d="M-243 0C-222.8 -24.6 -202.6 -49.1 -194 -80.4C-185.4 -111.6 -188.5 -149.5 -171.8 -171.8C-155.2 -194.1 -118.9 -200.8 -87 -210.1C-55.1 -219.4 -27.6 -231.2 0 -243L0 0Z" fill="#979afd"></path><path d="M-162 0C-148.5 -16.4 -135.1 -32.7 -129.3 -53.6C-123.6 -74.4 -125.6 -99.7 -114.6 -114.6C-103.5 -129.4 -79.3 -133.9 -58 -140.1C-36.7 -146.2 -18.4 -154.1 0 -162L0 0Z" fill="#7c72f7"></path><path d="M-81 0C-74.3 -8.2 -67.5 -16.4 -64.7 -26.8C-61.8 -37.2 -62.8 -49.8 -57.3 -57.3C-51.7 -64.7 -39.6 -66.9 -29 -70C-18.4 -73.1 -9.2 -77.1 0 -81L0 0Z" fill="#715df2"></path></g><g transform="translate(0, 0)"><path d="M405 0C389.7 48.8 374.5 97.5 357.5 148.1C340.6 198.7 322 251.1 286.4 286.4C250.8 321.6 198.3 339.7 147.7 356.6C97.2 373.5 48.6 389.3 0 405L0 0Z" fill="#dfe4fc"></path><path d="M324 0C311.8 39 299.6 78 286 118.5C272.5 159 257.6 200.9 229.1 229.1C200.6 257.3 158.6 271.8 118.2 285.3C77.7 298.8 38.9 311.4 0 324L0 0Z" fill="#b8c0ff"></path><path d="M243 0C233.8 29.3 224.7 58.5 214.5 88.9C204.4 119.2 193.2 150.7 171.8 171.8C150.5 193 119 203.8 88.6 214C58.3 224.1 29.1 233.6 0 243L0 0Z" fill="#979afd"></path><path d="M162 0C155.9 19.5 149.8 39 143 59.2C136.2 79.5 128.8 100.4 114.6 114.6C100.3 128.7 79.3 135.9 59.1 142.6C38.9 149.4 19.4 155.7 0 162L0 0Z" fill="#7c72f7"></path><path d="M81 0C77.9 9.8 74.9 19.5 71.5 29.6C68.1 39.7 64.4 50.2 57.3 57.3C50.2 64.3 39.7 67.9 29.5 71.3C19.4 74.7 9.7 77.9 0 81L0 0Z" fill="#715df2"></path></g></svg>