<svg id="visual" viewBox="0 0 900 600" width="900" height="600" xmlns="http://www.w3.org/2000/svg" xmlns:xlink="http://www.w3.org/1999/xlink" version="1.1"><rect x="0" y="0" width="900" height="600" fill="#F5F6FA"></rect><path d="M0 435L30 436.7C60 438.3 120 441.7 180 421.7C240 401.7 300 358.3 360 359.2C420 360 480 405 540 424C600 443 660 436 720 430.3C780 424.7 840 420.3 870 418.2L900 416L900 0L870 0C840 0 780 0 720 0C660 0 600 0 540 0C480 0 420 0 360 0C300 0 240 0 180 0C120 0 60 0 30 0L0 0Z" fill="#7b80f1"></path><path d="M0 290L30 291.8C60 293.7 120 297.3 180 310.2C240 323 300 345 360 345.7C420 346.3 480 325.7 540 329.7C600 333.7 660 362.3 720 359C780 355.7 840 320.3 870 302.7L900 285L900 0L870 0C840 0 780 0 720 0C660 0 600 0 540 0C480 0 420 0 360 0C300 0 240 0 180 0C120 0 60 0 30 0L0 0Z" fill="#7579f2"></path><path d="M0 263L30 278.5C60 294 120 325 180 324.5C240 324 300 292 360 283.3C420 274.7 480 289.3 540 295.5C600 301.7 660 299.3 720 299.2C780 299 840 301 870 302L900 303L900 0L870 0C840 0 780 0 720 0C660 0 600 0 540 0C480 0 420 0 360 0C300 0 240 0 180 0C120 0 60 0 30 0L0 0Z" fill="#6f71f2"></path><path d="M0 305L30 300.5C60 296 120 287 180 277.5C240 268 300 258 360 249.2C420 240.3 480 232.7 540 230.5C600 228.3 660 231.7 720 242.5C780 253.3 840 271.7 870 280.8L900 290L900 0L870 0C840 0 780 0 720 0C660 0 600 0 540 0C480 0 420 0 360 0C300 0 240 0 180 0C120 0 60 0 30 0L0 0Z" fill="#6969f3"></path><path d="M0 205L30 212.5C60 220 120 235 180 242.8C240 250.7 300 251.3 360 250.3C420 249.3 480 246.7 540 250.7C600 254.7 660 265.3 720 266.7C780 268 840 260 870 256L900 252L900 0L870 0C840 0 780 0 720 0C660 0 600 0 540 0C480 0 420 0 360 0C300 0 240 0 180 0C120 0 60 0 30 0L0 0Z" fill="#6461f3"></path><path d="M0 237L30 222.5C60 208 120 179 180 173C240 167 300 184 360 191.2C420 198.3 480 195.7 540 190.7C600 185.7 660 178.3 720 184.2C780 190 840 209 870 218.5L900 228L900 0L870 0C840 0 780 0 720 0C660 0 600 0 540 0C480 0 420 0 360 0C300 0 240 0 180 0C120 0 60 0 30 0L0 0Z" fill="#5e59f3"></path><path d="M0 196L30 185.8C60 175.7 120 155.3 180 144.5C240 133.7 300 132.3 360 133.5C420 134.7 480 138.3 540 143.8C600 149.3 660 156.7 720 163C780 169.3 840 174.7 870 177.3L900 180L900 0L870 0C840 0 780 0 720 0C660 0 600 0 540 0C480 0 420 0 360 0C300 0 240 0 180 0C120 0 60 0 30 0L0 0Z" fill="#5950f3"></path><path d="M0 89L30 99.5C60 110 120 131 180 140.8C240 150.7 300 149.3 360 142.7C420 136 480 124 540 125.7C600 127.3 660 142.7 720 146.8C780 151 840 144 870 140.5L900 137L900 0L870 0C840 0 780 0 720 0C660 0 600 0 540 0C480 0 420 0 360 0C300 0 240 0 180 0C120 0 60 0 30 0L0 0Z" fill="#5547f2"></path><path d="M0 105L30 101.7C60 98.3 120 91.7 180 84.8C240 78 300 71 360 72.3C420 73.7 480 83.3 540 82C600 80.7 660 68.3 720 66C780 63.7 840 71.3 870 75.2L900 79L900 0L870 0C840 0 780 0 720 0C660 0 600 0 540 0C480 0 420 0 360 0C300 0 240 0 180 0C120 0 60 0 30 0L0 0Z" fill="#503df1"></path><path d="M0 29L30 33.2C60 37.3 120 45.7 180 49.2C240 52.7 300 51.3 360 53.7C420 56 480 62 540 61C600 60 660 52 720 45.2C780 38.3 840 32.7 870 29.8L900 27L900 0L870 0C840 0 780 0 720 0C660 0 600 0 540 0C480 0 420 0 360 0C300 0 240 0 180 0C120 0 60 0 30 0L0 0Z" fill="#4c32f0"></path></svg>