<svg id="visual" viewBox="0 0 960 540" width="960" height="540" xmlns="http://www.w3.org/2000/svg" xmlns:xlink="http://www.w3.org/1999/xlink" version="1.1"><rect x="0" y="0" width="960" height="540" fill="#F5F6FA"></rect><path d="M0 226L40 228.8C80 231.7 160 237.3 240 234.2C320 231 400 219 480 231.5C560 244 640 281 720 297.3C800 313.7 880 309.3 920 307.2L960 305L960 541L920 541C880 541 800 541 720 541C640 541 560 541 480 541C400 541 320 541 240 541C160 541 80 541 40 541L0 541Z" fill="#c2bbef"></path><path d="M0 298L40 303.2C80 308.3 160 318.7 240 314.5C320 310.3 400 291.7 480 294.7C560 297.7 640 322.3 720 324.7C800 327 880 307 920 297L960 287L960 541L920 541C880 541 800 541 720 541C640 541 560 541 480 541C400 541 320 541 240 541C160 541 80 541 40 541L0 541Z" fill="#afa4f1"></path><path d="M0 368L40 378.5C80 389 160 410 240 417.5C320 425 400 419 480 401.5C560 384 640 355 720 356.8C800 358.7 880 391.3 920 407.7L960 424L960 541L920 541C880 541 800 541 720 541C640 541 560 541 480 541C400 541 320 541 240 541C160 541 80 541 40 541L0 541Z" fill="#9b8df2"></path><path d="M0 443L40 446.2C80 449.3 160 455.7 240 447.3C320 439 400 416 480 401.8C560 387.7 640 382.3 720 394.8C800 407.3 880 437.7 920 452.8L960 468L960 541L920 541C880 541 800 541 720 541C640 541 560 541 480 541C400 541 320 541 240 541C160 541 80 541 40 541L0 541Z" fill="#8775f3"></path><path d="M0 465L40 460.2C80 455.3 160 445.7 240 444.7C320 443.7 400 451.3 480 461.5C560 471.7 640 484.3 720 486.7C800 489 880 481 920 477L960 473L960 541L920 541C880 541 800 541 720 541C640 541 560 541 480 541C400 541 320 541 240 541C160 541 80 541 40 541L0 541Z" fill="#715df2"></path></svg>