<svg id="visual" viewBox="0 0 960 540" width="960" height="540" xmlns="http://www.w3.org/2000/svg" xmlns:xlink="http://www.w3.org/1999/xlink" version="1.1"><rect x="0" y="0" width="960" height="540" fill="#F5F6FA"></rect><path d="M0 185L22.8 197.8C45.7 210.7 91.3 236.3 137 238.7C182.7 241 228.3 220 274 218.5C319.7 217 365.3 235 411.2 246.2C457 257.3 503 261.7 548.8 252.3C594.7 243 640.3 220 686 204.5C731.7 189 777.3 181 823 195C868.7 209 914.3 245 937.2 263L960 281L960 0L937.2 0C914.3 0 868.7 0 823 0C777.3 0 731.7 0 686 0C640.3 0 594.7 0 548.8 0C503 0 457 0 411.2 0C365.3 0 319.7 0 274 0C228.3 0 182.7 0 137 0C91.3 0 45.7 0 22.8 0L0 0Z" fill="#715df2"></path><path d="M0 140L22.8 151.7C45.7 163.3 91.3 186.7 137 181.7C182.7 176.7 228.3 143.3 274 137.2C319.7 131 365.3 152 411.2 161.2C457 170.3 503 167.7 548.8 176.3C594.7 185 640.3 205 686 198.3C731.7 191.7 777.3 158.3 823 156C868.7 153.7 914.3 182.3 937.2 196.7L960 211L960 0L937.2 0C914.3 0 868.7 0 823 0C777.3 0 731.7 0 686 0C640.3 0 594.7 0 548.8 0C503 0 457 0 411.2 0C365.3 0 319.7 0 274 0C228.3 0 182.7 0 137 0C91.3 0 45.7 0 22.8 0L0 0Z" fill="#6349f8"></path><path d="M0 106L22.8 109C45.7 112 91.3 118 137 116.2C182.7 114.3 228.3 104.7 274 112C319.7 119.3 365.3 143.7 411.2 154C457 164.3 503 160.7 548.8 150.8C594.7 141 640.3 125 686 116C731.7 107 777.3 105 823 105.5C868.7 106 914.3 109 937.2 110.5L960 112L960 0L937.2 0C914.3 0 868.7 0 823 0C777.3 0 731.7 0 686 0C640.3 0 594.7 0 548.8 0C503 0 457 0 411.2 0C365.3 0 319.7 0 274 0C228.3 0 182.7 0 137 0C91.3 0 45.7 0 22.8 0L0 0Z" fill="#5531fc"></path><path d="M0 41L22.8 51.7C45.7 62.3 91.3 83.7 137 91.2C182.7 98.7 228.3 92.3 274 93.2C319.7 94 365.3 102 411.2 100.5C457 99 503 88 548.8 84C594.7 80 640.3 83 686 82.2C731.7 81.3 777.3 76.7 823 71.5C868.7 66.3 914.3 60.7 937.2 57.8L960 55L960 0L937.2 0C914.3 0 868.7 0 823 0C777.3 0 731.7 0 686 0C640.3 0 594.7 0 548.8 0C503 0 457 0 411.2 0C365.3 0 319.7 0 274 0C228.3 0 182.7 0 137 0C91.3 0 45.7 0 22.8 0L0 0Z" fill="#4600ff"></path></svg>