<svg id="visual" viewBox="0 0 960 540" width="960" height="540" xmlns="http://www.w3.org/2000/svg" xmlns:xlink="http://www.w3.org/1999/xlink" version="1.1"><rect x="0" y="0" width="960" height="540" fill="#F5F6FA"></rect><path d="M0 291L40 295.8C80 300.7 160 310.3 240 332.2C320 354 400 388 480 406.2C560 424.3 640 426.7 720 407.3C800 388 880 347 920 326.5L960 306L960 0L920 0C880 0 800 0 720 0C640 0 560 0 480 0C400 0 320 0 240 0C160 0 80 0 40 0L0 0Z" fill="#c2bbef"></path><path d="M0 203L40 198.3C80 193.7 160 184.3 240 183.3C320 182.3 400 189.7 480 198.3C560 207 640 217 720 241.2C800 265.3 880 303.7 920 322.8L960 342L960 0L920 0C880 0 800 0 720 0C640 0 560 0 480 0C400 0 320 0 240 0C160 0 80 0 40 0L0 0Z" fill="#afa4f1"></path><path d="M0 248L40 232.8C80 217.7 160 187.3 240 187C320 186.7 400 216.3 480 217.5C560 218.7 640 191.3 720 177.7C800 164 880 164 920 164L960 164L960 0L920 0C880 0 800 0 720 0C640 0 560 0 480 0C400 0 320 0 240 0C160 0 80 0 40 0L0 0Z" fill="#9b8df2"></path><path d="M0 124L40 130.3C80 136.7 160 149.3 240 157.2C320 165 400 168 480 169.3C560 170.7 640 170.3 720 162.7C800 155 880 140 920 132.5L960 125L960 0L920 0C880 0 800 0 720 0C640 0 560 0 480 0C400 0 320 0 240 0C160 0 80 0 40 0L0 0Z" fill="#8775f3"></path><path d="M0 112L40 101.2C80 90.3 160 68.7 240 67.3C320 66 400 85 480 91.3C560 97.7 640 91.3 720 87.2C800 83 880 81 920 80L960 79L960 0L920 0C880 0 800 0 720 0C640 0 560 0 480 0C400 0 320 0 240 0C160 0 80 0 40 0L0 0Z" fill="#715df2"></path></svg>
